<svg xmlns="http://www.w3.org/2000/svg" xmlns:xlink="http://www.w3.org/1999/xlink" width="989" height="1252" viewBox="0 0 989 1252"><defs><path id="w3sba" d="M-23.132 173.4s88.545 95.66 131.925 200.868c43.38 105.208 394.936 242.993 472.057 397.075 77.122 154.083 203.445 124.897 271.26 166.529 67.815 41.632-103.18 360.547-178.532 390.575-75.352 30.028-418.765 59.012-516.23-130.779-97.464-189.79-75.523-118.674-115.695-260.339C1.481 795.665 28.415 677.29-14.209 476.76-56.834 276.226-118.811 138.46-88.005 129.577"/><path id="w3sbb" d="M-42.374 135.507S70.184 181.64 166.41 359.686C262.637 537.73 191.71 786.334 312.87 839.98c121.16 53.646 285.044-65.258 368.135-47.89 83.091 17.367 288.207 48.497 165.135 282.497-123.073 234-197.95 266.262-444.762 269.683-246.813 3.42-296.205-228.95-296.205-228.95S-45.572 911.5-28.323 707c17.25-204.5 57.738-376.576 9.22-462.01-48.518-85.433-23.271-109.482-23.271-109.482z"/><path id="w3sbc" d="M736.742 1273.945c-48.556 54.751-124.656 91.135-200.09 102.468-64.993 9.765-129.21-2.075-178.19-1.644-105.789.929-150.932-173.513-163.475-188.577C182.444 1171.13 8.03 757.08-37.842 398.446-83.713 39.812 15.306 198.032 15.306 198.032s209.1 280.599 272.786 371.47c63.686 90.872 232.77 238.139 305.702 218.697 72.932-19.442 112.84 80.423 144.444 174.174 31.604 93.75 115.173 63.391 143.197 113.37 28.025 49.978-7.01 54.85-31.098 86.543"/></defs><g><g transform="translate(97 -129)"><g opacity=".15"><use fill="#f1ec53" xlink:href="#w3sba"/></g><g opacity=".15"><use fill="#53ebf1" xlink:href="#w3sbb"/></g><g opacity=".1"><use fill="#e534cd" xlink:href="#w3sbc"/></g></g></g></svg>