<svg version="1.1" id="Слой_1" xmlns="http://www.w3.org/2000/svg" x="0" y="0" viewBox="0 0 1097.3 372" xml:space="preserve"><style>.st0{fill:#fff}</style><path class="st0" d="M0 152.9c4.4-5.9 10.9-4.8 17-4.9 14.2-.1 28.3-.4 42.5-.2 4 0 6.1-1.3 8-4.9 7.8-15.3 16.4-30.2 23.8-45.7 4.9-10.5 12.8-16.7 23.3-19.4 19.2-4.9 38.5-9.1 57.8-13.4 5.9-1.3 12-1.7 17.9-3.1C217 55 236.4 77.2 238 98.9c1 14.3-3 27.1-10.3 39.2-1.1 1.8-2.3 3.7-4 6.4 10.7 0 20.5.2 30.3-.2 1.4-.1 3.2-2.7 4.1-4.5 12.1-23.7 24.3-47.5 36.1-71.4 2.6-5.4 5.4-5.9 10.4-3.4 15.5 7.7 17 10.4 14.3 27.7-4.3 27.8-15.8 52.8-28.5 77.5-24.7 48.1-53.9 93.4-83.9 138.3-.4.7-1 1.2-2.3 1.4 3.5-6.7 7.1-13.5 10.6-20.2-.5-.4-1-.8-1.4-1.2-2.4 2.2-4.8 4.4-8.5 7.7 1.6-6.3 2.7-10.8 3.9-15.4-.7-.4-1.5-.8-2.2-1.2l-14.4 22.5c-.2-.1-.5-.2-.7-.3 1.4-3.5 2.8-7 4.4-10.8-1.5-.1-3-.2-5.5-.4 2.7-4.8 5-8.9 7.6-13.6-2.2-.3-3.8-.5-5.4-.8-.1-.4-.3-.9-.2-1.2 4.7-10.9 9-22.1 14.2-32.7 13.4-27.2 27.3-54.1 40.9-81.1.6-1.2 1.1-2.5 2-4.4-2-.2-3.4-.5-4.9-.5-9.3.2-18.6.3-27.9.7-2.5.1-5.7.2-7.5 1.6-14.3 11.4-31.2 16.5-48.7 18.1-18.6 1.8-37.5 1.6-56.3 1.9-4 .1-5.6 1.8-7.1 5-10.5 21.9-22.1 43.2-38.7 61.3-4.1 4.5-9.2 8-13.9 11.9-.7-.5-1.3-.9-2-1.4.8-3.9 1.7-7.8 2.5-11.7-.3-.2-.5-.3-.8-.5l-15 22.2c-.2-.1-.5-.2-.7-.3 2.7-7 5.5-14.1 8.2-21.1-.3-.2-.5-.3-.8-.5-.9 1.1-1.8 2.2-2.7 3.2-4.4 5.1-8.8 10.2-14.3 16.5 4.2-11.5 7.9-21.6 11.6-31.7-.3-.2-.6-.3-.9-.5-1.9 2.9-3.8 5.7-5.7 8.6l-.6-.3c.5-1.6 1-3.3 1.7-4.9 9.1-21.6 18.3-43.1 27.5-64.7 2.4-5.7 1.8-8.6-4.5-9.7-10.5-1.9-21.2-2.4-31.8-3.6-5.3-.6-10.7-1.5-16-2.3-.2-.4-.2-.8-.2-1.2zm112.9-6.9c.2.7.5 1.3.7 2 12.8-1 25.8-1.2 38.4-3.2 19-3 31.9-13.5 36.8-32.8 2.5-9.8.5-13.4-9.5-15.2-15-2.7-28.7 2.4-42.4 7.1-.9.3-1.8 1.1-2.2 1.9-7.3 13.3-14.6 26.8-21.8 40.2zm140.4 3.3c0-.7.1-1.5.1-2.2h-28.5v.7c9.5.5 19 1 28.4 1.5zm179.7.4c5.7-7.6 11.5-13.9 15.6-21.2C469 91.8 488.9 54.8 509 18c1.3-2.4 2.8-4.7 4.2-7.1.5.3 1 .5 1.5.8-2.9 5.9-5.9 11.8-8.8 17.6.4.2.8.5 1.2.7 2.1-3.4 4.1-6.9 6.2-10.3l1.2.6c-4.8 9.1-9.5 18.2-14.3 27.3.3.2.7.4 1 .5L521 17.2c.3.2.6.3.9.5-2.8 5.4-5.5 10.8-8.3 16.2.3.2.5.3.8.5 1.8-2.4 3.6-4.9 5.4-7.3.3.1.5.2.8.3-2.8 8.2-5.6 16.4-8.5 24.7.5.2 1 .5 1.5.7 3.6-5.2 7.3-10.3 11.7-16.6.2 3.2.3 5.1.6 8.7 4.2-6.1 7.6-10.9 11.2-16-.2 15.1-14 23.6-17.6 36.9 3.6-4.4 7.1-8.5 10.6-12.7.7.4 1.5.8 2.2 1.2-3.1 9.2-5.3 18.8-9.4 27.6-16.5 36-33.7 71.6-54.3 105.5-3.2 5.3-4.9 11.5-7.5 17.2-6.1 13.5-24.5 24.9-39.2 23.6-2.9-.3-6.3-3.4-8.2-6.1-17.8-24.3-29.9-51.1-36.1-80.7-.5-2.6-1.1-5.1-1.7-7.7 0-.1-.3-.2-1.1-.9-1.1 1.9-2.2 3.7-3.2 5.5-19.9 35.4-39.7 70.8-59.7 106.1-3.4 6-8.1 11.2-12.2 16.7-.9-.5-1.8-1-2.7-1.4 2.5-6.3 5.1-12.5 7.6-18.7-10.8-2.6-11.9-4.3-9.1-14.5-6.8-3.2-5.7-8.9-4.1-14.7 6.9-24.4 17.1-47.4 29.1-69.7 14.2-26.5 28.1-53.2 41.9-80 2.4-4.7 5.6-6.7 10.1-5.2 9.7 3.1 19.7 6.1 28.6 10.9 4.3 2.4 7.4 8.5 9.3 13.6 7.3 20.3 13.8 40.9 20.6 61.4.4 1.8 1 3.7 2 6.9zm449.4-4.9c-1 2.7-2.1 5.4-3.5 9.1 6.3.5 11.6.9 17 1.4 0 .3 0 .6.1.9h-17.2v1.3c5.1.3 10.2.6 16.4.9-8.2 1.8-15.1 3.4-22.1 4.9 0 .4-.1.8-.1 1.2 3.2.3 6.4.6 9.6 1 .1.4.1.8.2 1.1-13.7 1.8-27.3 4.2-41 5.3-30.8 2.5-61.7 4.3-92.5 6.5-1.7.1-4.3.9-5 2.2-6.3 11.3-12.3 22.7-18.3 34.1-.3.6-.3 1.5-.5 2.6 36.1.8 71.9 1.6 107.7 2.4 0 .3.1.7.1 1-9.2.7-18.4 1.3-27.6 2v.7h57.8c-10.4 4.3-19.9 4.7-30 4.1-5.1-.3-10.5 4.1-15.5 7.7 8.7.6 17.4 1.2 26.2 1.7 0 .3.1.6.1.9-10.8.9-21.7 1.7-32.5 2.6 0 .4-.1.8-.1 1.3 1.7.8 3.4 1.5 5.8 2.6-6.4.9-12.4 1-18 2.5-18.3 5-36.3 10.8-54.6 15.7-9.1 2.5-18.5 4-27.8 5.8-4.8.9-8.7-.6-11.4-5-8.3-13.8-16.7-27.6-25-41.4-3.5-5.9-2.8-11.9.3-17.8 13.1-24.8 26-49.7 39.4-74.4 9.1-16.7 19-32.9 28.4-49.4 3.4-5.9 6.1-10.3 14.9-9.8 13.6.6 27.3-1.8 41-2.5 38.5-1.8 77.1-3.4 115.7-5 5-.2 10.1 0 15.1 0 0 .7-.1 1.3-.1 2h-6.2c-.5 2.3-.9 4.3-1 4.8-5 2.4-9.3 3.8-12.8 6.4-18.6 13.5-40.1 18.8-62.3 21.7-22 2.9-44.1 5.2-66.2 7.4-5.1.5-8.7 2.1-10.6 7.2-3.2 8.6-6.7 17.1-10.4 26.6 6.3.3 10.7.6 15.1.8.1-.4.1-.9.2-1.3-1.5-.3-3.1-.6-4.6-.9 0-.2 0-.4.1-.7h117.7v2.4h-19.3c-.1.9-.3 1.8-.4 2.7 2.4 1 5.1 1.9 7.7 2.7z"/><path class="st0" d="M429.5 294.2c4.3-2 8.7-3.8 12.9-6 9.6-5 19.7-9.4 28.4-15.6 16.2-11.5 35-17.5 52-27.1.3-.2.5-.6 1.6-2.2-3.8.8-6.8.9-9.3 2-7.9 3.5-15.6 7.6-23.5 11.2-9.7 4.4-19.5 8.4-29.3 12.6-.2-.5-.5-1-.7-1.6 3.3-1.8 6.5-3.6 9.8-5.4-.1-.1-.1-.3-.2-.4-18.6 6.2-37.3 12.4-55.9 18.6-.1-.4-.3-.8-.4-1.1 10.6-4.1 21.2-8.3 32.6-12.7-1.7-.5-2.9-.9-2.7-.8 31.8-13.9 64.5-28.2 97.3-42.5-.3-.7-.6-1.4-.9-2.2-17.4 7.4-34.8 14.9-52.2 22.3-.3-.5-.5-1-.8-1.5 2.1-1.3 4.2-2.6 6.4-3.8 37.3-19.8 74.7-39.4 111.9-59.4 6-3.2 11.8-7.1 16.7-11.8 5.2-5 3.8-9.7-2.8-12.9-9.1-4.4-18.7-2.6-28.1-1.7-18.1 1.7-36.2 3.8-54.2 5.6-2.8.3-5.6 0-8.5-.1-14.8-.6-22.8-11.6-19-26.2 2.8-10.8 9.7-19 17.9-26.1 29.4-25.6 64-40.4 101.8-48.4 15.2-3.2 30.6-6 46.3-3.6 8.4 1.3 11.8 4.1 13.3 10.2 1.2 5.3-.4 8.3-5.7 10.1-24.4 8-48.7 16.1-73 24.5-11.2 3.9-22.5 7.9-33.3 12.8-5.4 2.4-10 6.7-14.5 10.7-2.1 1.8-3.1 4.8-4.6 7.3.4.5.7 1 1.1 1.5 6.3-1.1 12.7-1.6 18.8-3.4 27.8-8.6 56-5.9 84.2-3.4 14.9 1.3 22.5 12.3 20 28.1-3.6 23-14.1 42.5-33.7 55.3-17.7 11.6-36.6 21.4-55 31.7-33.6 18.8-68.9 33.8-105.8 44.7-7.8 2.3-15.4 5.4-24.5 3.4-6.1-1.4-13.3 1.5-19.8 3.1-4.8 1.2-9.3 3.4-13.9 5.2-.4-.3-.5-.6-.7-1zm646.5-72.7h-56.1v2.3h77.4v1.6c-16.9 1.1-33.9 2.1-51.3 3.2 6.5 1 12.5 2 18.5 3-.1.8-.2 1.6-.3 2.5h-40.5v1.5h38.6c0 .2-.1.3-.1.5l-28.5 6.6c-.1.3-.1.5-.2.8 3.1.4 6.3.7 10.2 1.2-18.7 9.4-38.6 6.7-57.6 9.9-23.5 4.1-47 7.5-70.5 11.8-7.5 1.4-13 .5-17-6.4-7.1-12.4-14.7-24.6-21.4-37.3-4.3-8.2-3.3-16.4 1.8-24.7 11.9-19.5 25.3-38.5 34-59.4 10-23.9 25.5-44.4 36.5-67.6 4.7-9.8 11.2-18.6 17.7-27.7l-3.6 8.4c.3.1.6.3.9.4 3-5.1 6-10.1 9-15.2.3.1.6.3.9.4-4.2 10.8-8.4 21.6-12.8 33.2 1.7-.7 2.9-1.2 4.3-1.8-1.3 2.9-2.5 5.6-3.7 8.2.4.2.7.4 1.1.7 2.7-4.2 5.3-8.5 8-12.7.3.2.6.3.9.5-3.6 6.5-7.2 12.9-10.9 19.4.4.2.8.5 1.2.7C967.8 76.8 973 68 979.1 58c-3.2 9.7-5.9 17.9-8.9 27.1 2.2-2.9 3.9-5.1 5.6-7.4.3.2.6.3.9.5-4.7 9.5-9.4 19-14.7 29.6 3.1-2.1 5.1-3.5 7.2-4.9.6.2 1.2.5 1.8.7-1.9 8.3-2.6 17.1-6 24.8-7.3 16.8-15.8 33.1-24.1 49.5-5.6 11-11.8 21.6-17.4 32.6-3.2 6.2-2 7.9 5 8 38 .5 76 1 114 1.4 11.1.1 22.2 0 33.3 0 .1.4.2 1 .2 1.6zM961.4 58c-.4-.3-.9-.7-1.3-1-5.1 9.2-10.2 18.3-15.3 27.5.6.3 1.2.7 1.8 1 5-9.2 9.9-18.3 14.8-27.5zM353.9 0c-.3 1.4-.4 2.3-.6 3.2-3.3 12.8-6.7 25.6-9.8 38.5-2.8 11.4-7.2 16.4-16 16.8-21.3 1.1-27.9-11.8-20.3-32 2.9-7.7 9.1-13.2 16.6-16.9 3.2-1.6 6.1-4.1 9.5-5.1 6.5-1.8 13.4-2.9 20.6-4.5zm231.5 330.5c8.1-2.1 15.6-2.2 23 .5 6.9 2.6 10.4 8 10.9 15.3.6 8.7-.8 16.7-9.1 21.5-2.4 1.4-5.2 2.2-7.9 2.8-15.2 3.2-16.9 1.8-16.9-13.4v-26.7zm5.6 3.6v32.4c8.4.8 15.5.5 20.3-6.6 3.8-5.7 3.9-15 .1-20.1-5-6.9-12.1-7-20.4-5.7zm208.8 15.6c.1 13.1-7.6 21.8-19.2 21.7-11.3 0-18.6-8.2-18.6-20.9 0-13.2 7.5-21.7 19.2-21.7 11.3 0 18.5 8.2 18.6 20.9zm-5 .7c-1.3-4.1-1.9-8-3.7-11.2-4.8-8.4-16-8.3-20.7.1-4 7.2-4.1 14.7.2 21.8 4.7 7.7 15.2 8 20.1.3 2.1-3.1 2.8-7.2 4.1-11zM484.3 345c0-2.6-.4-5.3.1-7.8.6-2.7-2.6-7 2.7-7.5.6-.1 2.1 5 2.4 7.8.4 4.8 0 9.7.1 14.5.1 2.4.3 4.8.7 7.2 1 5 4.1 7.9 9.2 7.9 5.1-.1 8.2-3 9.2-8 .4-2.4.6-4.8.7-7.2.1-5.4-.2-10.9.2-16.3.1-2.1 1.6-4.2 2.5-6.2.9 2 2.4 4.1 2.5 6.2.3 6.8.3 13.7 0 20.6-.4 10.1-6 15.4-15.6 15.4-9.1 0-14.2-5.3-14.7-15.5-.1-3.8 0-7.4 0-11.1zm-162.5-12.8c-1.3.6-2.6 1.6-4 1.7-1.8.2-3.8-1-5.3-.4-2.7 1-6.7 2.5-7.2 4.6s2 5.5 4.1 7.5c1.9 1.8 5.1 2.3 7.6 3.6 4.8 2.5 6.9 6.6 6.2 12-.6 5.3-4 8.6-8.9 9.4-4.2.7-8.7 0-13-.7-1.1-.2-1.8-2.5-3.2-4.7 5.6.6 9.5 1.8 13.1 1.2 2.4-.4 5.8-3 6.3-5.2s-1.4-5.6-3.4-7.4c-2.3-2.1-5.7-2.8-8.6-4.3-4.4-2.4-7-6.1-6.1-11.4 1-5.8 5-8.7 10.5-9.2 3.7-.3 7.5.4 11.2.6.2 1 .4 1.9.7 2.7zm83.7 1.6c0 11.4.1 21.7-.1 31.9 0 1.8-1.5 3.5-2.3 5.2-1-1.8-2.7-3.6-2.8-5.4-.3-10.3-.1-20.5-.1-31.4-4.5-.2-8.4-.4-14.6-.7 2.4-2.2 3.4-4 4.5-4 8.1-.2 16.2-.2 24.3 0 1.1 0 2.2 1.6 3.3 2.4-1.2.7-2.4 1.8-3.6 1.9-2.6.3-5.2.1-8.6.1zm282.7 16c0-5.6-.2-11.3.1-16.9.1-1.2 1.7-2.4 2.7-3.5.8 1.1 2.3 2.2 2.3 3.4.2 11.7.2 23.3 0 35 0 1.1-1.6 2.2-2.5 3.2-.9-1.2-2.5-2.4-2.5-3.7-.3-5.9-.1-11.7-.1-17.5zm-153-334.2c-2.3 4.4-4.7 8.7-7 13.1-.6-.3-1.2-.6-1.9-.9 2.2-4.4 4.4-8.9 6.7-13.3.7.3 1.5.7 2.2 1.1zM253.3 149.3c-9.5-.5-18.9-1-28.4-1.5v-.7h28.5c0 .8 0 1.5-.1 2.2z"/><path class="st0" d="M961.4 58c-4.9 9.2-9.9 18.3-14.8 27.5-.6-.3-1.2-.7-1.8-1 5.1-9.2 10.2-18.3 15.3-27.5.4.4.9.7 1.3 1z"/></svg>