<?xml version="1.0" encoding="utf-8"?>
<!-- Generator: Adobe Illustrator 19.2.1, SVG Export Plug-In . SVG Version: 6.00 Build 0)  -->
<svg version="1.1" id="Слой_1" xmlns="http://www.w3.org/2000/svg" xmlns:xlink="http://www.w3.org/1999/xlink" x="0px" y="0px"
	 viewBox="0 0 323.5 126" style="enable-background:new 0 0 323.5 126;" xml:space="preserve">
<g>
	<path d="M13.8,17.6h17.2c9.8,0,16.5,0.4,19.9,1.3c4.9,1.2,8.9,3.7,12.1,7.5c3.1,3.8,4.7,8.5,4.7,14.2c0,5.7-1.5,10.5-4.6,14.2
		c-3,3.7-7.2,6.2-12.6,7.5c-3.9,0.9-11.2,1.4-21.9,1.4h-6.2v40.1h-8.6V17.6z M22.4,26.1v29.2L37,55.5c5.9,0,10.2-0.5,12.9-1.6
		c2.7-1.1,4.9-2.8,6.4-5.2c1.6-2.4,2.3-5.1,2.3-8c0-2.9-0.8-5.5-2.3-7.9c-1.6-2.4-3.6-4.1-6.2-5.1c-2.6-1-6.7-1.5-12.6-1.5H22.4z"/>
	<path d="M86.3,13.8c1.9,0,3.5,0.7,4.8,2c1.3,1.3,2,2.9,2,4.8c0,1.8-0.7,3.4-2,4.7c-1.3,1.3-2.9,2-4.8,2c-1.8,0-3.4-0.7-4.7-2
		c-1.3-1.3-2-2.9-2-4.7c0-1.9,0.7-3.5,2-4.8C82.9,14.5,84.5,13.8,86.3,13.8z M82.3,40.1h8.2v63.8h-8.2V40.1z"/>
	<path d="M107.5,40.1h8.2v11.4c3.3-4.4,6.9-7.6,10.9-9.8s8.3-3.3,13-3.3c4.8,0,9,1.2,12.7,3.6c3.7,2.4,6.4,5.7,8.2,9.8
		s2.6,10.5,2.6,19.2v32.8h-8.2V73.4c0-7.3-0.3-12.2-0.9-14.7c-1-4.2-2.8-7.4-5.5-9.5c-2.7-2.1-6.2-3.2-10.5-3.2
		c-5,0-9.4,1.6-13.3,4.9c-3.9,3.3-6.5,7.3-7.8,12.2c-0.8,3.2-1.2,8.9-1.2,17.3v23.4h-8.2V40.1z"/>
	<path d="M212.8,47l-5.3,5.4c-4.4-4.3-8.7-6.4-12.9-6.4c-2.7,0-4.9,0.9-6.8,2.6c-1.9,1.8-2.8,3.8-2.8,6.2c0,2.1,0.8,4,2.3,5.9
		c1.6,1.9,4.9,4.2,9.9,6.7c6.1,3.2,10.3,6.2,12.4,9.1c2.2,3,3.2,6.3,3.2,10c0,5.2-1.8,9.7-5.5,13.3s-8.3,5.4-13.8,5.4
		c-3.7,0-7.2-0.8-10.5-2.4c-3.3-1.6-6.1-3.8-8.3-6.6l5.2-5.9c4.2,4.7,8.6,7.1,13.3,7.1c3.3,0,6.1-1.1,8.4-3.2
		c2.3-2.1,3.5-4.6,3.5-7.4c0-2.3-0.8-4.4-2.3-6.3c-1.5-1.8-5-4.1-10.3-6.8c-5.8-3-9.7-5.9-11.7-8.8c-2.1-2.9-3.1-6.2-3.1-9.9
		c0-4.8,1.7-8.9,5-12.1c3.3-3.2,7.5-4.8,12.5-4.8C200.9,38.4,206.8,41.3,212.8,47z"/>
	<path d="M281,82.7l6.9,3.6c-2.3,4.5-4.9,8-7.9,10.8c-3,2.7-6.3,4.8-10,6.2c-3.7,1.4-7.9,2.1-12.6,2.1c-10.4,0-18.5-3.4-24.4-10.2
		c-5.9-6.8-8.8-14.5-8.8-23.1c0-8.1,2.5-15.3,7.4-21.6c6.3-8,14.7-12.1,25.3-12.1c10.9,0,19.5,4.1,26,12.4c4.6,5.8,7,13.1,7,21.8
		h-57.4c0.2,7.4,2.5,13.5,7.1,18.2c4.6,4.7,10.2,7.1,17,7.1c3.2,0,6.4-0.6,9.5-1.7c3.1-1.1,5.7-2.6,7.8-4.5
		C276.1,89.8,278.5,86.8,281,82.7z M281,65.5c-1.1-4.4-2.7-7.9-4.8-10.5c-2.1-2.6-4.9-4.7-8.3-6.3c-3.4-1.6-7.1-2.4-10.9-2.4
		c-6.3,0-11.6,2-16.1,6c-3.3,2.9-5.8,7.3-7.5,13.2H281z"/>
	<path d="M304,15.5h8.2v88.4H304V15.5z"/>
</g>
</svg>
