<svg xmlns="http://www.w3.org/2000/svg" xmlns:xlink="http://www.w3.org/1999/xlink" width="1351" height="865"><defs><path id="a" d="M533.206 1868.56s111.98-66.72 223.907-87.279c111.928-20.558 319.795-335.784 486.545-379.185 166.75-43.4 164.466-173.031 219.288-230.709 54.821-57.677 331.216 175.887 344.921 255.836 13.705 79.949-29.344 421.883-235.251 477.758-205.908 55.876-131.784 49.2-278.705 59.04-146.92 9.84-257.11-41.116-462.12-41.116-205.012 0-352.653 31.98-354.938 0"/><path id="b" d="M492.14 1879.504s68.528-100.507 262.689-157.613c194.16-57.106 422.586 63.959 500.25-43.4 77.665-107.36-4.568-292.385 29.695-370.049 34.264-77.664 107.36-271.825 310.658-102.791s219.288 248.983 171.318 491.113c-47.969 242.13-285.53 242.13-285.53 242.13s-230.71 105.076-427.155 45.685c-196.445-59.39-356.342-134.77-449.996-105.075-93.655 29.695-111.929 0-111.929 0z"/><path id="c" d="M1767.688 1354.108c43.46 58.878 63.226 140.88 58.628 217.022-3.961 65.602-28.894 125.955-38.656 173.954-21.086 103.67-201.102 111.559-218.444 120.696-17.342 9.137-458.607 93.654-818.94 63.959-360.334-29.696-184.984-93.655-184.984-93.655s317.941-146.192 420.068-189.592c102.127-43.401 281.33-178.172 277.476-253.552-3.854-75.38 102.127-93.654 200.4-105.076 98.272-11.42 85.952-99.475 140.665-116.496 54.712-17.021 52.193 18.26 78.186 48.412"/></defs><use fill="#f1ec53" xlink:href="#a" opacity=".15" transform="translate(-476 -1138)"/><use fill="#53ebf1" xlink:href="#b" opacity=".15" transform="translate(-476 -1138)"/><use fill="#e534cd" xlink:href="#c" opacity=".1" transform="translate(-476 -1138)"/></svg>