<svg xmlns="http://www.w3.org/2000/svg" xmlns:xlink="http://www.w3.org/1999/xlink" width="718" height="727"><defs><path id="a" d="M756.007 1490.678c31.855 57.712-64.074 14.828-43.777 150.522 20.298 135.693 51.285 279.637-109.822 294.05-161.107 14.413-424.863-51.644-416.902-139.317 7.961-87.674 58.126-113.86 65.052-200.461 6.925-86.6 12.594-184.78 79.812-200.719 67.219-15.938 172.392-32.539 254.439 15.597s139.343 22.615 171.198 80.328z"/><path id="b" d="M216.632 1455.742c39.19-91.515 82.119-210.977 216.527-129.691s312.77 167.29 354.217 263.908c41.446 96.62 172.149 201.278 51.194 262.343-120.955 61.065-223.145 18.977-338.379 93.652-115.233 74.675-185.431-98.22-198.891-162.422-13.46-64.203-24.76-83.2-24.903-91.424-.144-8.224-98.956-144.852-59.765-236.366z"/><path id="c" d="M494.805 1339.106c-16.767-80.169-32.365-126.012-161.182-41.767-128.816 84.245-96.052 150.78-106.153 351.258-10.101 200.479-20.903 314.24 139.18 328.77 160.084 14.53 316.92-155.492 403.619-121.913 86.7 33.58 198.456-22.696 84.026-188.77-114.43-166.074-355.002-25.554-377.556-133.774-22.553-108.22 34.833-113.634 18.066-193.804z"/></defs><use fill="#f1ec53" xlink:href="#a" opacity=".6" transform="translate(-185 -1252)"/><use fill="#53ebf1" xlink:href="#b" opacity=".25" transform="translate(-185 -1252)"/><use fill="#e534cd" xlink:href="#c" opacity=".35" transform="translate(-185 -1252)"/></svg>