<svg xmlns="http://www.w3.org/2000/svg" xmlns:xlink="http://www.w3.org/1999/xlink" width="548" height="554" viewBox="0 0 548 554"><defs><path id="v478a" d="M1490.614 2399.05c24.28 43.986-48.835 11.302-33.365 114.724 15.47 103.422 39.088 213.133-83.704 224.118-122.793 10.985-323.822-39.362-317.754-106.184 6.068-66.823 44.303-86.782 49.581-152.787 5.279-66.005 9.6-140.835 60.832-152.983 51.232-12.148 131.393-24.8 193.927 11.887 62.534 36.688 106.204 17.238 130.483 61.224z"/><path id="v478b" d="M1079.515 2372.422c29.87-69.75 62.589-160.802 165.032-98.847 102.442 61.954 238.386 127.504 269.976 201.145 31.589 73.64 131.208 153.409 39.018 199.951-92.189 46.543-170.076 14.464-257.904 71.38-87.828 56.915-141.332-74.86-151.59-123.795-10.26-48.934-18.871-63.413-18.98-69.68-.11-6.269-75.423-110.404-45.552-180.154z"/><path id="v478c" d="M1291.532 2283.525c-12.78-61.103-24.668-96.043-122.849-31.834-98.181 64.21-73.209 114.921-80.908 267.721-7.699 152.8-15.931 239.507 106.08 250.581 122.012 11.074 241.549-118.512 307.63-92.92 66.08 25.594 151.257-17.298 64.042-143.875-87.215-126.578-270.574-19.477-287.764-101.96-17.19-82.482 26.549-86.61 13.769-147.713z"/></defs><g><g opacity=".41" transform="translate(-1055 -2217)"><g opacity=".25"><use fill="#f1ec53" xlink:href="#v478a"/></g><g opacity=".1"><use fill="#53ebf1" xlink:href="#v478b"/></g><g opacity=".14"><use fill="#e534cd" xlink:href="#v478c"/></g></g></g></svg>