<svg xmlns="http://www.w3.org/2000/svg" width="512" height="512" viewBox="0 0 512 512">
  <metadata><?xpacket begin="﻿" id="W5M0MpCehiHzreSzNTczkc9d"?>
<x:xmpmeta xmlns:x="adobe:ns:meta/" x:xmptk="Adobe XMP Core 5.6-c138 79.159824, 2016/09/14-01:09:01        ">
   <rdf:RDF xmlns:rdf="http://www.w3.org/1999/02/22-rdf-syntax-ns#">
      <rdf:Description rdf:about=""/>
   </rdf:RDF>
</x:xmpmeta>
                                                                                                    
                                                                                                    
                                                                                                    
                                                                                                    
                                                                                                    
                                                                                                    
                                                                                                    
                                                                                                    
                                                                                                    
                                                                                                    
                                                                                                    
                                                                                                    
                                                                                                    
                                                                                                    
                                                                                                    
                                                                                                    
                                                                                                    
                                                                                                    
                                                                                                    
                                                                                                    
                           
<?xpacket end="w"?></metadata>
<defs>
    <style>
      .cls-1 {
        fill-rule: evenodd;
      }
    </style>
  </defs>
  <path id="Фигура_1" data-name="Фигура 1" class="cls-1" d="M482.2,204.965c15.3-25.031,23.626-51.775,21.467-81.521-3.266-45-43.76-91.248-99.339-78.183-12.264,2.883-24.993,3.762-37.3,6.5C326.8,60.713,286.5,69.416,246.571,79.584c-21.992,5.6-38.294,18.678-48.572,40.456-15.237,32.283-33.213,63.268-49.5,95.071-3.776,7.372-8.174,10.187-16.568,10.1-29.49-.312-58.989.214-88.485,0.475C30.7,225.8,17.228,223.515,8,235.878v2.527c11.1,1.6,22.173,3.481,33.314,4.753,22.072,2.522,44.4,3.52,66.2,7.48,13.15,2.388,14.5,8.287,9.417,20.216q-28.67,67.28-57.214,134.611c-1.406,3.316-2.318,6.84-3.459,10.267l1.3,0.564,11.981-17.811,1.8,0.948L47.172,465.469C58.58,452.276,67.751,441.688,76.9,431.078c1.9-2.2,3.707-4.484,5.557-6.729q0.794,0.483,1.588.969Q75.517,447.3,66.994,469.282L68.48,470q15.592-23.07,31.185-46.137l1.606,0.99L96.05,449.3l4.194,2.918c9.712-8.2,20.417-15.5,28.961-24.774,34.589-37.551,58.718-81.9,80.656-127.507,3.216-6.686,6.5-10.271,14.874-10.411,39.1-.655,78.367-0.324,117.231-3.978C378.6,282.1,413.746,271.582,443.53,247.78a12.469,12.469,0,0,1,4.427-2.1c5.409-4.718,10.816-9.819,16.225-15.056a48.684,48.684,0,0,1,10.774-12.282c-0.372,0-.741,0-1.122,0C477.434,212.592,479.859,208.8,482.2,204.965ZM401.4,150.637c-10.173,40.25-37.171,62.18-76.668,68.341-26.394,4.118-53.361,4.571-80.07,6.663l-1.443-4.174q22.677-41.886,45.433-83.727a9.16,9.16,0,0,1,4.589-3.992c28.642-9.769,57.236-20.254,88.393-14.718C402.5,122.738,406.56,130.211,401.4,150.637Z"/>
</svg>
