<svg xmlns="http://www.w3.org/2000/svg" xmlns:xlink="http://www.w3.org/1999/xlink" width="95" height="490" viewBox="0 0 95 490"><defs><path id="r93ha" d="M134.54 668.919c.479-1.637 1.57-2.592 3.07-3.171l.41.409c-1.023 1.057-2.012 2.148-3.001 3.205-.171-.136-.308-.306-.478-.443zm3.377-255.68c-1.876-.308-3.172-1.604-3.24-3.275 1.808.41 2.729 1.57 3.24 3.274zM97.504 539.39c2.49-2.694 5.456-4.535 8.833-5.353 2.865-.716 5.968-1.058 8.936.068 1.057.375 2.284.41 3.205.955 1.67.955 2.797 2.728 2.592 4.501-.272 2.217-1.33 4.126-3.888 5.047-4.33 1.535-8.526 1.535-12.72-.034-2.764-1.023-5.424-2.387-6.958-5.184zm25.202 123.254c1.74 2.114 3.411 4.194 4.98 6.106-2.524 2.967-5.082 5.592-7.196 8.56-2.455 3.444-4.604 7.127-6.684 10.845-1.67 2.967-3.24 6.07-4.501 9.243a105.428 105.428 0 0 0-3.718 11.22c-1.09 4.092-2.149 8.218-2.66 12.413-.546 4.23-.784 8.595-.511 12.892a66.643 66.643 0 0 0 4.877 21.314c1.807 4.332 4.024 8.458 6.923 12.142 1.774 2.25 3.513 4.604 5.627 6.514 2.319 2.08 5.081 3.683 7.673 5.49.103.069.103.171.307.58-2.148.137-4.127-.102-5.968-.887-2.899-1.228-5.56-2.728-8.015-4.877-4.535-3.99-7.64-9.003-10.538-14.119-3.035-5.354-5.116-11.254-6.207-17.325-1.637-9.175-1.944-18.416.409-27.556.92-3.65 1.535-7.4 2.626-11.016 1.023-3.41 2.422-6.753 3.785-10.06 1.126-2.797 2.285-5.594 3.684-8.254 1.637-3.103 3.512-6.07 5.286-9.106 1.193-2.046 2.285-4.16 3.58-6.105 1.74-2.592 3.65-5.081 5.491-7.57.17-.205.478-.274.75-.444zm4.742-363.417c-.478.477-.887 1.023-1.363 1.466-2.114 1.637-4.467 3.07-6.411 4.912-1.944 1.807-3.615 3.887-5.15 6.036-1.944 2.728-3.922 5.457-5.354 8.458-1.74 3.546-3.036 7.298-4.23 11.05-1.943 6.172-2.455 12.618-2.523 19.03-.035 4.16.75 8.355 1.5 12.482.784 4.262 1.67 8.56 3.103 12.652 1.876 5.389 4.025 10.778 6.719 15.825 2.49 4.639 5.798 8.868 8.901 13.164 1.365 1.876 3.002 3.548 4.605 5.253.818.852.272 1.466-.24 2.046-1.363 1.603-2.796 3.172-4.433 5.014-.989-1.263-2.012-2.456-2.967-3.718-4.808-6.446-9.003-13.233-12.414-20.497-1.5-3.172-3.068-6.31-4.297-9.584-1.773-4.671-3.513-9.343-4.774-14.152-.99-3.65-1.33-7.47-1.774-11.255-.785-6.753-.511-13.471.648-20.155 1.057-6.139 3.001-11.97 5.934-17.428 1.466-2.694 3.103-5.354 4.98-7.775 2.318-3.036 4.705-6.07 7.536-8.595 2.557-2.251 5.797-3.58 9.276-4.059.818-.135 1.637-.34 2.455-.51.102.101.17.238.273.34zm35.57 382.753c-4.297.205-8.22-1.295-12.108-2.796-2.456-.955-4.672-2.49-6.957-3.82-1.535-.852-2.933-1.977-4.536-2.66-1.637-.682-1.194-1.637-.58-2.524 1.398-1.943 2.9-3.854 4.365-5.763.683-.886 1.33-1.739 1.944-2.66 1.67-2.558 4.536-3.309 7.128-4.161 3.376-1.126 6.889-1.74 10.402-2.32 1.398-.239 2.933 0 4.33.307 4.094.887 8.186 1.842 11.426 4.673 1.979 1.739 3.479 3.717 4.06 6.548 1.056 5.116-1.262 8.458-5.082 11.186-4.297 3.07-9.31 3.684-14.392 3.99zm.273-284.669c1.705.103 3.444.103 5.117.41 5.013.75 9.412 2.83 12.55 6.82 1.637 2.08 2.285 4.74 1.705 7.606-1.091 5.355-4.775 8.15-9.447 9.754-3.274 1.091-6.787 1.876-10.232 1.978-2.898.102-5.866-.955-8.799-1.637-1.228-.307-2.353-.99-3.58-1.296-3.138-.785-5.185-2.83-6.924-5.355-1.57-2.285-3.172-4.57-4.877-6.753-.717-.887-.682-1.5.205-2.08 4.468-2.865 8.799-5.934 13.982-7.537 3.377-1.057 6.685-2.182 10.3-1.91zm-44.984 250.735zm0 0c-1.296-3-2.421-5.66-3.617-8.356-2.933-6.65-5.013-13.607-5.9-20.804-.648-5.457-1.09-11.015-.818-16.472.239-4.98 1.125-9.993 2.421-14.835a43.526 43.526 0 0 1 7.095-14.836c1.876-2.49 3.955-4.877 6.275-6.957 1.978-1.774 4.399-3.07 6.923-4.775.989 3.786 1.91 7.094 2.763 10.436.545 2.08.954 4.23 1.398 6.343.272 1.33.511 2.626.648 3.956.239 2.183.409 4.4.511 6.582.341 6.378-.068 12.721-2.592 18.69-.819 1.943-2.183 3.717-3.615 5.32-1.466 1.603-5.047 1.126-6.684-.75-1.603-1.773-2.797-3.717-2.729-6.241.035-1.398-.17-2.796-.307-4.638-1.33 1.466-1.841 2.899-1.876 4.399-.102 3.205 1.023 6.002 3.342 8.321 2.32 2.32 6.276 2.865 9.345 1.194 3.683-2.046 5.388-5.49 6.719-9.174 2.012-5.627 2.115-11.595 2.387-17.461.137-3.172-.409-6.412-.818-9.584-.272-2.32-.784-4.605-1.364-6.855-.853-3.445-1.876-6.889-2.865-10.3-.205-.75-.614-1.637.376-1.807.886-.137 2.285-.955 2.762.648 1.228 3.99 2.627 7.98 3.514 12.073 1.261 6.037 1.602 12.21.715 18.349-.682 4.74-1.637 9.447-2.728 14.12a103.063 103.063 0 0 1-3.206 11.083c-.989 2.831-2.353 5.56-3.648 8.288-1.16 2.455-2.32 4.911-3.684 7.264-2.115 3.684-4.33 7.298-6.616 10.913-1.194 1.91-2.592 3.684-4.127 5.866zm16.302-128.402zm0 0c.545-1.944 1.091-3.751 1.568-5.557.614-2.25 1.227-4.501 1.705-6.786.614-2.762 1.433-5.525 1.5-8.322.068-4.195 1.296-8.355.307-12.619-.58-2.456-.34-5.081-.887-7.503-.715-3.07-1.602-6.173-2.898-9.038-1.057-2.32-2.899-4.16-5.184-5.457-2.558-1.467-5.9-.921-8.288.818-2.217 1.637-3.206 3.751-4.059 6.241-.954 2.763.785 4.775 1.57 7.094.17-1.944.409-3.854.545-5.764.24-3.513 3.036-6.105 5.934-6.753 2.183-.477 3.684.955 4.843 2.456 2.694 3.546 3.82 7.74 4.229 12.106.272 3.002.852 6.071.648 9.038-.58 8.083-1.705 16.132-4.025 23.942-.409 1.33-.852 2.626-1.33 4.16-.137 0-.614.205-.852.035-1.638-1.091-3.308-2.148-4.843-3.376-1.262-1.024-2.422-2.149-3.581-3.275-3.138-3.104-5.593-6.684-7.537-10.64-1.773-3.65-3.172-7.367-4.126-11.289-2.285-9.243-3.001-18.485-1.092-27.863.887-4.264 1.398-8.663 2.592-12.824 1.637-5.696 3.616-11.357 6.753-16.507.102-.135.273-.204.682-.511 3.001 4.639 6.173 9.175 8.902 13.915 2.421 4.195 4.672 8.56 6.514 13.061 2.08 5.048 3.717 10.231 5.32 15.45 1.774 5.763 2.763 11.697 2.83 17.768 0 .852.376 1.706.308 2.524-.34 4.501-.58 8.969-1.262 13.402-.511 3.48-1.67 6.821-2.557 10.232-.614 2.353-.99 2.524-4.23 1.842zm-16.302 128.402zm-1.944-99.038c-.068.409-.068.818-.437 1.13-1.432 2.866-2.864 5.696-4.297 8.56-1.74 3.48-3.58 6.924-5.252 10.47-1.467 3.104-2.798 6.276-4.06 9.482-1.022 2.66-2.08 5.354-2.693 8.117-.99 4.501-1.808 9.071-2.388 13.641-.614 4.706-.443 9.379.17 14.153.819 6.139 2.388 12.005 4.74 17.666 1.91 4.604 4.298 9.004 6.617 13.403.75 1.398 1.876 2.626 2.83 3.922-.443-1.875-1.193-3.58-1.909-5.286-1.91-4.57-4.092-9.071-5.661-13.778-1.194-3.683-1.774-7.605-2.387-11.459-.92-5.73-1.671-11.424-.716-17.29.716-4.502.989-9.038 2.421-13.403 1.603-4.877 2.967-9.856 4.945-14.563 2.592-6.104 5.662-12.005 8.595-17.939 1.467-2.966 3.206-5.797 4.706-8.764.648-1.263 1.603-1.399 2.934-1.33 1.398 3.205 2.83 6.411 4.194 9.617.41 1.023.307 1.671-.921 2.387-2.66 1.603-5.286 3.41-7.571 5.525-2.217 2.046-4.195 4.433-5.968 6.923-2.115 2.966-4.093 6.036-5.73 9.276a51.611 51.611 0 0 0-5.047 15.859c-.58 3.888-.887 7.775-1.126 11.698-.136 1.807.137 3.615.341 5.422.375 3.41.716 6.889 1.364 10.265.614 3.138 1.5 6.208 2.455 9.243 1.023 3.308 2.081 6.616 3.445 9.754 1.33 3.07 3.172 5.968 4.638 9.003.272.614.204 1.67-.137 2.251-.579 1.023-1.535 1.875-2.353 2.762-2.354 2.625-4.672 5.286-7.094 7.878-.853.887-1.808 1.671-2.763 2.422-1.773 1.398-3.58 2.796-5.354 4.194l.306.41c7.605-3.718 13.778-9.242 19.576-15.347 3.41 1.978 3.683 4.433 1.057 7.162-1.604 1.671-2.967 3.513-4.263 5.422-2.115 3.138-4.23 6.344-6.105 9.652-2.422 4.263-4.81 8.56-6.821 13.028-1.807 3.956-3.172 8.082-4.536 12.209-1.057 3.24-1.978 6.548-2.626 9.89-.682 3.547-.886 7.23-1.466 10.811-1.092 6.787-.307 13.505.852 20.122a62.067 62.067 0 0 0 3.82 13.096c1.91 4.569 4.297 8.9 7.469 12.857 2.557 3.172 5.081 6.24 8.423 8.662 2.524 1.842 4.98 3.547 7.947 4.468 3.512 1.091 7.06 2.353 10.81 1.057 2.423-.818 4.843-1.092 7.367-.818 4.843.511 9.31-.58 13.403-3.274 3.616-2.388 6.207-5.56 7.367-9.754.648-2.388 1.09-4.808 1.466-7.23.409-2.524-.444-4.844-1.705-7.094-.376 1.978-.341 3.956-.376 5.9-.103 4.093-1.773 7.572-4.059 10.88-1.671 2.422-4.024 3.99-6.548 5.116-1.808.818-3.922.954-5.9 1.398-.103-.171-.17-.308-.273-.478 2.25-3.103 4.706-6.104 5.388-10.026.648-3.82 1.876-7.64-.784-11.357v3.001c0 .818.136 1.637-.035 2.387-1.193 5.355-3.206 10.266-7.64 13.88-1.602 1.297-3.274 2.15-5.217 1.365-2.285-.922-4.707-1.808-6.651-3.274a54.862 54.862 0 0 1-7.844-7.3c-2.047-2.318-3.752-5.013-5.32-7.741-2.116-3.683-3.343-7.708-4.366-11.834-1.023-4.196-1.91-8.39-1.91-12.722 0-2.626.136-5.252-.034-7.844-.274-4.16.613-8.185 1.398-12.21.443-2.284 1.057-4.501 1.705-6.752.784-2.83 1.5-5.695 2.592-8.424 1.466-3.615 3.137-7.162 4.945-10.64a59.184 59.184 0 0 1 4.57-7.401c2.182-3.036 4.672-5.833 6.923-8.834.614-.819 1.193-.92 1.774-.375.306.307.409 1.193.17 1.602-.785 1.399-1.774 2.66-2.627 3.99a960.4 960.4 0 0 0-6.105 9.891c-3.307 5.49-6.105 11.22-8.219 17.29-3.035 8.697-4.945 17.564-4.467 26.875.238 4.501 1.193 8.696 3.853 12.311 1.33 1.807 3.172 3.103 5.627 3.24 4.707.239 8.731-3.376 9.584-7.912.341-1.706.921-3.683-.818-5.457-.171 1.227-.308 2.216-.478 3.205-.614 3.82-2.625 6.412-6.343 7.708-2.114.751-4.092-.273-4.843-1.466-1.841-2.899-3.17-6.003-3.103-9.55.069-2.66-.033-5.354.035-8.048.034-1.399.103-2.831.375-4.195 1.365-6.719 2.967-13.403 5.798-19.678 2.353-5.217 4.843-10.333 7.537-15.346 1.535-2.865 3.547-5.457 5.355-8.185.783-1.126 1.568-2.217 2.455-3.479 1.126.99 1.876 1.842 2.83 2.422 2.388 1.399 4.741 2.865 7.265 3.956 3.137 1.33 6.344 2.83 9.686 3.308 4.399.614 8.901.716 13.335-.58 5.15-1.5 9.89-3.513 13.402-7.81 2.763-3.376 3.547-7.263 2.183-11.22-1.602-4.672-5.388-7.708-9.72-9.856-4.842-2.42-10.128-3.138-15.482-3.308-1.194-.034-2.388.41-3.581.614-1.263.238-2.49.409-4.264.716 1.569-2.388 2.899-4.297 4.093-6.241 2.66-4.365 5.457-8.662 7.844-13.198 2.047-3.922 3.922-7.98 5.355-12.141 1.363-3.923 2.216-8.084 2.898-12.176.614-3.65 1.16-7.4.955-11.084-.273-4.91-1.16-9.822-2.08-14.699-.546-2.864-1.637-5.627-2.558-8.423-.75-2.183-1.57-4.366-2.422-6.514-.478-1.228-1.091-2.422-1.637-3.616-.136.068-.307.137-.443.205.716 2.66 1.467 5.287 2.183 7.946.681 2.592 1.5 5.15 2.011 7.776 1.364 7.196 1.842 14.46 1.194 21.758-.137 1.5-.103 3.07-.376 4.536-1.125 6.002-2.626 11.937-5.081 17.53-1.57 3.615-3.342 7.127-5.116 10.64-.92 1.808-2.046 3.547-3.103 5.286-1.024 1.706-2.08 3.342-3.138 5.014-1.193 1.876-2.353 3.752-3.615 5.56-1.228 1.773-2.285 4.058-4.024 4.978-4.434 2.388-8.287 5.389-12.107 8.56-.307.274-1.194.24-1.466 0-1.296-1.227-2.592-2.49-3.718-3.853-1.637-2.046-1.603-2.115.137-4.263a42.543 42.543 0 0 1 3.546-3.888c2.012-1.91 4.16-3.751 6.241-5.627 1.5-1.33 3.035-2.66 4.536-3.99-4.57 1.432-8.083 4.502-11.698 7.4-1.603 1.297-2.932 2.9-4.501 4.264-1.603 1.398-1.705 1.33-2.797-.478-.273-.409-.545-.852-.887-1.194-1.364-1.261-.648-2.387.205-3.546 2.626-3.479 5.388-6.889 7.776-10.504 1.841-2.83 3.376-5.866 4.876-8.902 1.706-3.41 3.207-6.888 4.707-10.401.854-1.978 1.57-3.99 2.217-6.037 1.228-3.887 2.592-7.775 3.48-11.765.886-4.025 1.33-8.117 1.773-12.176 1.023-8.935 0-17.7-2.387-26.328-.444-1.57-.922-3.138-1.433-4.775.41-.069.648-.137.853-.137 7.025.034 14.767 7.333 15.313 14.392.239 2.967.443 5.9.682 8.867 1.227-2.83 2.25-5.661 1.466-8.764-.239-.853-.443-1.773-.511-2.66-.24-3.343-1.672-6.446-3.684-8.834-3.205-3.785-7.162-6.82-12.55-7.06a11.053 11.053 0 0 1-3-.51c-.546-.172-1.126-.649-1.399-1.127-1.091-1.875-1.977-3.922-3.205-5.729-1.569-2.353-3.41-4.501-5.047-6.82-.273-.376-.342-1.229-.103-1.638.58-.955 1.432-1.705 2.114-2.592 2.32-3.07 4.673-6.138 6.173-9.754.444-1.022.99-1.637 2.217-1.705 4.434-.204 8.356-1.467 11.835-4.467 2.148-1.876 3.99-3.888 5.15-6.378.852-1.774 1.056-3.854 1.636-5.764 1.057-3.58.41-7.093-.375-10.606-.068-.272-.205-.511-.307-.75l-.716.307c0 1.943.102 3.922 0 5.866-.204 5.149-2.25 9.582-5.832 13.198-2.148 2.183-4.944 3.274-7.877 3.956-.819.206-1.671.24-2.592.376.068-.41.068-.648.136-.853 1.672-5.286 3.036-10.675 3.411-16.2.375-5.218.205-10.504.102-15.756-.034-1.978-.34-4.025-.784-5.968-.784-3.65-1.739-7.23-2.66-10.846-1.57-6.275-3.853-12.311-6.719-18.075-2.114-4.263-4.502-8.389-6.957-12.448-1.944-3.206-3.921-6.412-6.343-9.242-2.592-3.104-2.865-3.275-.682-6.651 1.091-1.637 1.501-1.637 2.967-.239a198.532 198.532 0 0 0 6.343 5.695c1.398 1.194 2.796 2.353 4.297 3.377 1.57 1.057 3.274 1.944 4.911 2.898-.034-.58-.17-.989-.443-1.228-2.252-2.012-4.605-3.922-6.753-6.036-2.66-2.557-5.15-5.252-7.64-7.98-.239-.307-.137-1.262.17-1.637 1.194-1.535 2.592-2.899 3.718-4.468.989-1.364 1.773-1.057 2.899-.205 2.967 2.251 6.07 4.365 9.105 6.582 1.33.99 2.83 1.842 3.854 3.07 1.5 1.808 2.694 3.922 4.024 5.9 1.398 2.08 2.968 4.093 4.264 6.241 2.285 3.854 4.672 7.673 6.514 11.732a115.01 115.01 0 0 1 5.661 14.87c1.126 3.683 1.57 7.605 2.08 11.459.444 3.24.614 6.548.649 9.856.033 2.353-.41 4.707-.58 7.06-.41 6.616-2.319 12.891-4.297 19.166-.341 1.057-.58 2.149-.887 3.24.17.068.375.102.546.17.92-2.046 1.978-4.024 2.694-6.105 1.33-3.956 2.455-8.014 3.649-12.004 2.285-7.571 3.035-15.245 2.046-23.09a52.555 52.555 0 0 0-.683-4.024c-.477-2.319-.886-4.672-1.534-6.957a69.96 69.96 0 0 0-2.32-6.99c-1.194-2.968-2.387-5.901-3.82-8.698-1.706-3.342-3.615-6.616-5.559-9.821-1.262-2.081-2.763-3.991-4.127-6.003-.886-1.33-1.705-2.695-2.557-4.059.102-.137.239-.272.34-.41 1.263.273 2.49.581 3.752.853.58.137 1.194.444 1.774.41 6.377-.205 12.619-.614 18.348-3.99 3.445-2.047 6.309-4.468 8.083-8.083 1.228-2.49 1.398-5.184.784-7.673-.989-3.956-3.853-6.923-7.23-8.97-4.774-2.898-10.13-4.33-15.756-4.467-5.15-.137-10.095.92-14.665 3.205-3.513 1.774-6.856 3.889-10.163 6.003-1.16.75-1.67.478-2.251-.512-.784-1.33-1.67-2.626-2.455-3.956-2.66-4.434-5.456-8.8-7.878-13.37-2.08-3.92-3.99-8.014-5.56-12.208-1.33-3.513-2.319-7.23-3.069-10.948-.716-3.479-.99-7.06-1.398-10.606-.17-1.194-.137-2.422-.205-3.616-.239-4.501.648-8.73 3.342-12.413.546-.75 1.705-1.398 2.66-1.5 4.775-.444 8.526 4.092 8.526 8.184 0 .92.205 1.876.375 3.138 1.296-2.456 1.569-5.252.75-6.89-.988-1.977-2.079-3.82-3.955-5.252-3.273-2.49-8.765-1.841-11.118 1.5-2.456 3.514-3.854 7.402-3.82 11.63.068 4.57.103 9.174.853 13.642.852 5.116 2.08 10.232 3.82 15.109 2.694 7.469 6.446 14.426 10.743 21.11 1.841 2.865 3.82 5.662 5.764 8.493.477.682 1.262 1.568.034 2.046-.58.204-1.808-.171-2.217-.683-3.273-4.126-6.513-8.219-9.276-12.754-2.83-4.638-5.116-9.515-7.06-14.529-1.535-3.99-2.557-8.185-3.547-12.346-.818-3.307-1.569-6.65-1.739-10.026-.273-4.808.034-9.651.102-14.494.035-1.365-.068-2.763.24-4.059.784-3.513 1.5-7.093 2.693-10.504 1.296-3.683 2.729-7.503 4.877-10.708 2.285-3.411 4.843-6.788 8.254-9.448 3.274-2.558 6.718-4.672 10.708-5.866.58-.204 1.433-.272 1.944 0a19.501 19.501 0 0 1 6.787 6.651c2.046 3.376 3.205 7.093 3.137 11.118 0 .955.307 1.91.444 2.865.204-.035.375-.068.545-.102 1.569-7.845-.068-14.972-5.354-21.35 1.33.068 2.42.58 3.546.614 3.207.102 5.56 2.013 7.606 4.024 3.035 2.967 4.843 6.787 5.252 11.118.238 2.49.41 5.013.614 7.537.512-.477.75-1.023.921-1.603.852-2.899.409-5.797.137-8.765-.546-5.968-3.342-10.572-8.117-13.846-2.115-1.466-4.74-2.387-7.264-3.035-2.524-.648-5.185-1.228-7.845-.137-.613.273-1.5.102-2.25-.068-2.183-.443-4.332-1.398-6.48-1.398-2.422 0-4.946.58-7.299 1.33-4.603 1.433-8.628 4.058-11.902 7.571-2.899 3.104-5.66 6.378-7.98 9.924-3.342 5.082-5.662 10.743-7.128 16.712-.784 3.342-1.705 6.684-1.74 10.197-.033 3.683-.784 7.366-.545 11.015.375 5.628.682 11.323 2.353 16.814 1.262 4.16 1.978 8.526 3.547 12.55 2.354 6.036 5.15 11.937 8.049 17.734 1.637 3.274 3.785 6.343 5.866 9.378 2.114 3.104 4.364 6.173 6.786 9.072 1.774 2.148 1.978 2.387.341 4.672-.273.376-.443.955-.784 1.092-.58.238-1.432.442-1.807.17-1.229-.92-2.251-2.046-3.343-3.138-4.33-4.365-9.242-7.98-14.528-11.152a.808.808 0 0 0-.132-.05c.667 1.06 1.268 2.206 2.144 3.052 2.455 2.32 5.218 4.366 7.673 6.719 1.91 1.841 3.581 3.956 5.388 5.9 1.502 1.637 1.808 3.24 1.024 4.638-1.57 2.729-3.377 5.388-4.468 8.321-2.012 5.39-3.683 10.88-5.286 16.405-1.67 5.627-2.216 11.424-2.012 17.325.17 4.502-.204 9.072 1.057 13.471 1.126 3.922 2.046 7.946 3.479 11.766 1.126 3.035 2.83 5.866 4.433 8.697 1.193 2.047 2.387 4.16 3.956 5.9 3.65 4.059 7.4 8.05 12.38 10.539 1.057.511 1.125 1.159.614 2.182-.546 1.023-.92 2.149-1.398 3.24-.955 2.285-1.944 4.536-3.138 7.332-1.228-1.124-2.217-1.772-2.865-2.694-.785-1.125-1.296-2.455-1.944-3.683-2.353-4.57-4.808-9.106-6.991-13.744-1.876-3.922-3.479-7.98-5.116-12.039-1.126-2.83-2.354-5.661-3.07-8.594-1.228-5.116-2.114-10.3-3.07-15.484-.988-5.525-.578-11.05.376-16.54.751-4.4 1.433-8.867 2.763-13.096 1.433-4.604 3.547-9.004 5.423-13.471.784-1.91 1.74-3.717 2.626-5.593-.137-.069-.307-.171-.443-.24-.683 1.16-1.399 2.286-2.08 3.445-1.808 3.103-3.82 6.139-5.321 9.413-2.49 5.423-4.877 10.947-5.798 16.95-.682 4.638-1.842 9.31-1.705 13.949.135 5.831.852 11.697 2.455 17.427 1.569 5.593 3.308 11.084 5.798 16.302 3.069 6.446 6.24 12.824 9.378 19.235.683 1.399 1.364 2.831 2.046 4.23-.136.136-.238.306-.375.443-2.933-1.263-5.832-1.16-8.97-.683-4.637.716-8.116 3.036-11.288 6.139-.648.648-1.057.785-1.535-.137-1.671-3.172-2.728-6.514-2.865-10.13 0-.51-.069-1.023-.137-1.534-.068-.511-.17-.99-.306-1.74-1.638 4.74-.887 9.14.443 13.438.682 2.148 1.671 3.955.375 6.377-.954 1.773-.716 4.195-1.432 6.139-1.057 2.864.034 5.422.58 8.116.273-.545.443-1.057.443-1.602.068-3.991.955-7.742 2.695-11.323.51-1.092.92-1.364 1.91-.307 3.75 4.058 8.423 6.206 13.982 6.138 2.013-.034 4.059-.307 6.31-.477zM97.88 408.362c-.17.137-.341.273-.546.41.29.057.629.041.892.119-.113-.18-.228-.356-.346-.529z"/></defs><g><g transform="translate(-90 -295)"><use fill="#dfbc6f" xlink:href="#r93ha"/></g></g></svg>